<svg width="95" height="28" viewBox="0 0 95 28" fill="none" xmlns="http://www.w3.org/2000/svg">
<path d="M18.4154 11.4691C17.4351 9.802 15.8446 8.57235 13.9474 8.01483C12.0502 7.45731 9.97924 7.61098 8.1298 8.44649C7.12243 8.90158 6.20507 9.42543 5.44706 10.1629C4.12468 11.4494 4.09671 13.6704 5.48032 14.8908C6.2045 15.5295 6.91022 15.9375 7.2267 16.9768C7.50358 17.8861 7.26674 18.706 7.04334 19.5749C6.55049 21.4919 7.92074 23.3066 9.88368 23.5606C10.8067 23.6801 11.7583 23.6434 12.6969 23.4445C14.6732 23.0257 16.4533 21.9167 17.6973 20.3292C18.9413 18.7418 19.5622 16.7871 19.4413 14.8383L19.2881 13.6277C19.189 12.8447 18.8883 12.1009 18.4154 11.4691Z" fill="white"/>
<ellipse cx="13.7711" cy="3.52298" rx="2.7541" ry="2.55738" transform="rotate(4.67804 13.7711 3.52298)" fill="white"/>
<ellipse cx="21.3891" cy="6.90958" rx="2.7541" ry="2.55738" transform="rotate(4.67804 21.3891 6.90958)" fill="white"/>
<ellipse cx="24.437" cy="13.0805" rx="2.7541" ry="2.55738" transform="rotate(4.67804 24.437 13.0805)" fill="white"/>
<path d="M26.1046 21.1121C26.3452 21.1318 26.5603 20.9514 26.5357 20.7113C26.4866 20.231 26.2922 19.7685 25.9705 19.3794C25.5521 18.8733 24.9481 18.5276 24.276 18.4093C23.6038 18.291 22.9113 18.4085 22.3329 18.7391C21.7545 19.0696 21.3315 19.5897 21.146 20.1982C20.9605 20.8067 21.0257 21.4603 21.329 22.0322C21.6323 22.604 22.152 23.0533 22.7873 23.2927C23.4226 23.5321 24.128 23.5447 24.7668 23.3279C25.2553 23.1622 25.6781 22.8713 25.9895 22.4928C26.1456 22.303 26.0584 22.0291 25.8376 21.9212C25.4118 21.7131 25.5885 21.0699 26.0609 21.1085L26.1046 21.1121Z" fill="white"/>
<path d="M37.4871 21.7483V5.74829H43.7996C45.0131 5.74829 46.047 5.98006 46.9011 6.4436C47.7553 6.90194 48.4063 7.53996 48.8542 8.35767C49.3074 9.17017 49.5339 10.1077 49.5339 11.1702C49.5339 12.2327 49.3048 13.1702 48.8464 13.9827C48.3881 14.7952 47.724 15.428 46.8542 15.8811C45.9897 16.3342 44.9428 16.5608 43.7136 16.5608H39.6902V13.8499H43.1667C43.8178 13.8499 44.3542 13.7379 44.7761 13.5139C45.2032 13.2847 45.5209 12.9696 45.7292 12.5686C45.9428 12.1624 46.0496 11.6962 46.0496 11.1702C46.0496 10.6389 45.9428 10.1754 45.7292 9.77954C45.5209 9.3785 45.2032 9.0686 44.7761 8.84985C44.349 8.6259 43.8074 8.51392 43.1511 8.51392H40.8699V21.7483H37.4871ZM56.9441 21.9827C55.7097 21.9827 54.6472 21.7327 53.7566 21.2327C52.8712 20.7275 52.1889 20.0139 51.7097 19.092C51.2306 18.165 50.991 17.0686 50.991 15.803C50.991 14.5686 51.2306 13.4853 51.7097 12.553C52.1889 11.6207 52.8634 10.8941 53.7332 10.3733C54.6082 9.85246 55.6342 9.59204 56.8113 9.59204C57.6029 9.59204 58.3399 9.71965 59.0222 9.97485C59.7097 10.2249 60.3087 10.6025 60.8191 11.1077C61.3347 11.6129 61.7358 12.2483 62.0222 13.0139C62.3087 13.7743 62.4519 14.665 62.4519 15.6858V16.5999H52.3191V14.5374H59.3191C59.3191 14.0582 59.2149 13.6337 59.0066 13.2639C58.7983 12.8941 58.5092 12.6051 58.1394 12.3967C57.7748 12.1832 57.3503 12.0764 56.866 12.0764C56.3608 12.0764 55.9128 12.1936 55.5222 12.428C55.1368 12.6571 54.8347 12.967 54.616 13.3577C54.3972 13.7431 54.2852 14.1728 54.28 14.6467V16.6077C54.28 17.2014 54.3894 17.7144 54.6082 18.1467C54.8321 18.579 55.1472 18.9124 55.5535 19.1467C55.9597 19.3811 56.4415 19.4983 56.9988 19.4983C57.3686 19.4983 57.7071 19.4462 58.0144 19.342C58.3217 19.2379 58.5847 19.0816 58.8035 18.8733C59.0222 18.665 59.1889 18.4097 59.3035 18.1077L62.3816 18.3108C62.2253 19.0504 61.905 19.6962 61.4207 20.2483C60.9415 20.7952 60.3217 21.2222 59.5613 21.5295C58.8061 21.8316 57.9337 21.9827 56.9441 21.9827ZM71.0066 9.74829V12.2483H63.78V9.74829H71.0066ZM65.4207 6.87329H68.7488V18.0608C68.7488 18.3681 68.7957 18.6077 68.8894 18.7795C68.9832 18.9462 69.1134 19.0634 69.28 19.1311C69.4519 19.1988 69.6498 19.2327 69.8738 19.2327C70.03 19.2327 70.1863 19.2196 70.3425 19.1936C70.4988 19.1624 70.6186 19.1389 70.7019 19.1233L71.2253 21.5999C71.0587 21.6519 70.8243 21.7118 70.5222 21.7795C70.2201 21.8525 69.8529 21.8967 69.4207 21.9124C68.6186 21.9436 67.9154 21.8368 67.3113 21.592C66.7123 21.3472 66.2462 20.967 65.9128 20.4514C65.5795 19.9358 65.4154 19.2847 65.4207 18.4983V6.87329ZM79.5574 9.74829V12.2483H72.3308V9.74829H79.5574ZM73.9714 6.87329H77.2996V18.0608C77.2996 18.3681 77.3464 18.6077 77.4402 18.7795C77.5339 18.9462 77.6641 19.0634 77.8308 19.1311C78.0027 19.1988 78.2006 19.2327 78.4246 19.2327C78.5808 19.2327 78.7371 19.2196 78.8933 19.1936C79.0496 19.1624 79.1694 19.1389 79.2527 19.1233L79.7761 21.5999C79.6095 21.6519 79.3751 21.7118 79.073 21.7795C78.7709 21.8525 78.4037 21.8967 77.9714 21.9124C77.1694 21.9436 76.4662 21.8368 75.8621 21.592C75.2631 21.3472 74.797 20.967 74.4636 20.4514C74.1303 19.9358 73.9662 19.2847 73.9714 18.4983V6.87329ZM83.78 26.2483C83.3582 26.2483 82.9623 26.2144 82.5925 26.1467C82.2279 26.0842 81.9259 26.0035 81.6863 25.9045L82.4363 23.4202C82.8269 23.54 83.1785 23.6051 83.491 23.6155C83.8087 23.6259 84.0821 23.553 84.3113 23.3967C84.5457 23.2405 84.7358 22.9749 84.8816 22.5999L85.0769 22.092L80.7722 9.74829H84.2722L86.7566 18.5608H86.8816L89.3894 9.74829H92.9128L88.2488 23.0452C88.0248 23.691 87.7201 24.2535 87.3347 24.7327C86.9545 25.217 86.4727 25.5894 85.8894 25.8499C85.3061 26.1155 84.6029 26.2483 83.78 26.2483Z" fill="white"/>
</svg>
