<svg width="16" height="15" viewBox="0 0 16 15" fill="none" xmlns="http://www.w3.org/2000/svg">
<path d="M9.08253 9.36581C9.5446 9.42929 9.97941 9.10371 9.95084 8.63817C9.90139 7.83224 9.62439 7.0455 9.14146 6.36458C8.49091 5.4473 7.51222 4.78628 6.39221 4.50772C5.2722 4.22916 4.08931 4.35255 3.06935 4.85435C2.04938 5.35615 1.26378 6.20121 0.862484 7.22821C0.461192 8.25522 0.472323 9.39225 0.893752 10.4223C1.31518 11.4523 2.11739 12.3031 3.14725 12.8124C4.17712 13.3216 5.3625 13.4537 6.47714 13.1833C7.30186 12.9832 8.04512 12.5731 8.63222 12.0037C8.9707 11.6754 8.85969 11.1354 8.46218 10.8818C7.71042 10.4021 8.13897 9.23618 9.02243 9.35755L9.08253 9.36581Z" fill="#FD653D"/>
<ellipse cx="7.07963" cy="2.20212" rx="1.56626" ry="1.45439" transform="rotate(7.82247 7.07963 2.20212)" fill="#FD653D"/>
<ellipse cx="11.2998" cy="4.36301" rx="1.56626" ry="1.45439" transform="rotate(7.82247 11.2998 4.36301)" fill="#FD653D"/>
<ellipse cx="12.8381" cy="7.96213" rx="1.56626" ry="1.45439" transform="rotate(7.82247 12.8381 7.96213)" fill="#FD653D"/>
<path d="M13.5344 12.5748C13.6704 12.5935 13.7982 12.4978 13.7917 12.3607C13.7788 12.0864 13.6829 11.8177 13.5123 11.5867C13.2905 11.2863 12.9584 11.0712 12.5804 10.983C12.2024 10.8948 11.8055 10.94 11.4667 11.1096C11.128 11.2793 10.8716 11.5614 10.7472 11.9012C10.6229 12.2409 10.6396 12.6141 10.7939 12.9483C10.9483 13.2825 11.2294 13.5538 11.5827 13.7096C11.936 13.8654 12.3362 13.8945 12.7056 13.7914C12.9882 13.7125 13.2374 13.5605 13.426 13.3552C13.5206 13.2523 13.4796 13.0941 13.3576 13.0259C13.1223 12.8945 13.2427 12.5347 13.5097 12.5714L13.5344 12.5748Z" fill="#FD653D"/>
</svg>
